<svg aria-hidden="true" style="position:absolute;width:0;height:0;overflow:hidden" xmlns="http://www.w3.org/2000/svg">
    <defs>
        <symbol id="exit" viewBox="0 0 11 11">
            <path d="M11 1.10786L9.89214 0L5.5 4.39214L1.10786 0L0 1.10786L4.39214 5.5L0 9.89214L1.10786 11L5.5 6.60786L9.89214 11L11 9.89214L6.60786 5.5L11 1.10786Z"/>
        </symbol>
        <symbol id="man" viewBox="0 0 18 18">
            <path d="M9 9C10.6575 9 12 7.6575 12 6C12 4.3425 10.6575 3 9 3C7.3425 3 6 4.3425 6 6C6 7.6575 7.3425 9 9 9ZM9 10.5C6.9975 10.5 3 11.505 3 13.5V14.25C3 14.6625 3.3375 15 3.75 15H14.25C14.6625 15 15 14.6625 15 14.25V13.5C15 11.505 11.0025 10.5 9 10.5Z"/>
        </symbol>
        <symbol id="telephone" viewBox="0 0 18 18">
            <path d="M13.996 11.1226L12.1579 10.9127C11.7164 10.8621 11.2822 11.0141 10.971 11.3252L9.63945 12.6568C7.59144 11.6147 5.91251 9.94301 4.87041 7.88775L6.20922 6.54894C6.5204 6.23775 6.67237 5.80355 6.62171 5.3621L6.41185 3.53842C6.325 2.8075 5.70988 2.2575 4.97173 2.2575H3.71976C2.902 2.2575 2.22175 2.93776 2.2724 3.75552C2.65595 9.93577 7.59868 14.8713 13.7717 15.2548C14.5894 15.3055 15.2697 14.6252 15.2697 13.8075V12.5555C15.2769 11.8246 14.7269 11.2095 13.996 11.1226Z"/>
        </symbol>
        <symbol id="email" viewBox="0 0 18 18">
            <path d="M15 3H3C2.175 3 1.5075 3.675 1.5075 4.5L1.5 13.5C1.5 14.325 2.175 15 3 15H15C15.825 15 16.5 14.325 16.5 13.5V4.5C16.5 3.675 15.825 3 15 3ZM14.7 6.1875L9.3975 9.5025C9.1575 9.6525 8.8425 9.6525 8.6025 9.5025L3.3 6.1875C3.1125 6.0675 3 5.865 3 5.6475C3 5.145 3.5475 4.845 3.975 5.1075L9 8.25L14.025 5.1075C14.4525 4.845 15 5.145 15 5.6475C15 5.865 14.8875 6.0675 14.7 6.1875Z"/>
        </symbol>
        <symbol id="logo" viewBox="0 0 100 19">
            <path d="M42.7705 1.42353H45.4481V3.89092C46.1216 2.92827 47.0194 2.14545 48.0635 1.61063C49.0056 1.15561 50.0381 0.920595 51.0837 0.923243C52.5919 0.800318 54.0777 1.34878 55.1469 2.4231C56.1119 3.67847 56.5829 5.2462 56.47 6.82754V17.5732H53.7614V7.35842C53.8688 6.23911 53.5823 5.1174 52.9516 4.18787C52.2972 3.52751 51.3859 3.19025 50.4609 3.26609C49.8508 3.2678 49.2454 3.37355 48.6706 3.57882C48.0707 3.79242 47.5238 4.13336 47.0672 4.57839C46.5884 4.98676 46.1875 5.47893 45.8839 6.03096C45.591 6.64945 45.4522 7.33009 45.4795 8.01432V17.5732H42.7705V1.42353ZM59.6452 1.42353H62.3538V11.6068C62.255 12.7199 62.5113 13.8356 63.0856 14.7931C63.6865 15.4666 64.5702 15.8143 65.4673 15.7301C66.6836 15.7253 67.8526 15.2563 68.7369 14.4184C69.2155 14.01 69.6162 13.5178 69.9196 12.9658C70.2128 12.3472 70.3518 11.6664 70.3245 10.9819V1.42353H73.0331V17.5732H70.3559V15.0742C69.6822 16.0135 68.8104 16.7921 67.8024 17.3545C66.8901 17.8333 65.8746 18.08 64.845 18.0729C63.3657 18.2101 61.9046 17.6641 60.8752 16.5894C59.9626 15.2936 59.5278 13.7198 59.6453 12.1376L59.6452 1.42353ZM76.8935 1.42353H79.5712V3.92242C80.1138 3.08454 80.8374 2.37992 81.6884 1.86078C82.4687 1.38995 83.3623 1.14158 84.2728 1.14238C84.7532 1.13518 85.233 1.17692 85.7049 1.26694L85.3623 3.79733C85.1546 3.75563 84.947 3.7192 84.7395 3.68802C84.5128 3.65534 84.284 3.63971 84.0549 3.64125C83.5352 3.64489 83.0197 3.73456 82.5291 3.90665C81.9852 4.0987 81.4868 4.40183 81.0656 4.7969C80.62 5.17866 80.2549 5.6459 79.9918 6.17117C79.7223 6.73623 79.589 7.35694 79.6026 7.9832V17.5731H76.8935V1.42353ZM97.3805 15.3554C96.7614 16.0951 96.0121 16.7145 95.17 17.1827C94.1449 17.7245 92.9966 17.9883 91.8386 17.9479C91.0863 17.9555 90.3368 17.8557 89.6125 17.6515C88.9752 17.4734 88.3815 17.1649 87.8688 16.7454C87.3781 16.3356 86.9891 15.8169 86.7326 15.2303C86.4493 14.559 86.3113 13.835 86.3277 13.1061C86.2851 12.1602 86.5292 11.2235 87.028 10.4196C87.5021 9.72673 88.1454 9.16743 88.8964 8.7952C89.7262 8.38348 90.6129 8.09914 91.5269 7.95171C92.526 7.78316 93.5348 7.67889 94.5472 7.63954L97.3181 7.54599V6.92114C97.4165 5.85648 97.1046 4.79447 96.4465 3.95346C95.6636 3.27851 94.6411 2.95152 93.6133 3.04745C92.6264 2.97337 91.6399 3.19641 90.78 3.68804C90.1817 4.10928 89.7601 4.73799 89.5968 5.45278L87.137 5.17163C87.331 3.84092 88.0925 2.66077 89.2233 1.93855C90.5972 1.1956 92.1477 0.844458 93.7065 0.923243C94.7038 0.89856 95.6982 1.04119 96.6487 1.34524C97.3829 1.58608 98.0498 1.99816 98.5946 2.54766C99.1071 3.09416 99.4762 3.75978 99.6689 4.48476C99.8965 5.32967 100.006 6.20208 99.9958 7.07722V17.5732H97.3805V15.3554ZM97.3181 9.48259L94.7342 9.57613C93.8133 9.59678 92.8962 9.70144 91.9942 9.88881C91.3834 10.0093 90.7985 10.2367 90.2662 10.5604C89.8673 10.8104 89.5526 11.175 89.3631 11.6068C89.1794 12.0629 89.0894 12.5517 89.0986 13.0436C89.0648 13.7676 89.3294 14.4737 89.8304 14.996C90.5073 15.5495 91.3742 15.8132 92.2435 15.7301C93.5924 15.8128 94.9238 15.3897 95.9793 14.5429C96.8876 13.7157 97.3788 12.5238 97.3181 11.2946L97.3181 9.48259ZM17.0967 9.49809C17.0967 14.2339 20.9231 18.0729 25.6433 18.0729C30.3634 18.0729 34.1899 14.2339 34.1899 9.49809C34.1899 9.44922 17.0967 9.49809 17.0967 9.49809ZM17.0967 9.49809C17.0967 4.76233 13.2702 0.923243 8.55008 0.923243C3.82992 0.923243 0.003479 4.76233 0.003479 9.49809H17.0967Z"/>
        </symbol>
        <symbol id="arrow" viewBox="0 0 14 17">
            <path d="M0 7.72559C0 7.34589 0.282154 7.0321 0.648229 6.98243L0.75 6.97559L15.75 6.97559C16.1642 6.97559 16.5 7.31137 16.5 7.72559C16.5 8.10528 16.2178 8.41908 15.8518 8.46874L15.75 8.47559L0.75 8.47559C0.335786 8.47559 0 8.1398 0 7.72559Z"/>
            <path d="M9.17101 2.23271C8.87749 1.94045 8.87646 1.46558 9.16872 1.17206C9.43442 0.905218 9.85103 0.880116 10.1451 1.09734L10.2294 1.16977L16.2794 7.19377C16.547 7.46026 16.5714 7.87837 16.3524 8.17245L16.2794 8.25667L10.2294 14.2817C9.93593 14.574 9.46105 14.573 9.16877 14.2795C8.90305 14.0127 8.87971 13.5959 9.09817 13.3028L9.17096 13.2188L14.687 7.72494L9.17101 2.23271Z"/>
        </symbol>
    </defs>
</svg>